<?xml version="1.0" encoding="utf-8"?>
<!-- Generator: Adobe Illustrator 16.0.4, SVG Export Plug-In . SVG Version: 6.00 Build 0)  -->
<!DOCTYPE svg PUBLIC "-//W3C//DTD SVG 1.1//EN" "http://www.w3.org/Graphics/SVG/1.1/DTD/svg11.dtd">
<svg version="1.1" id="Layer_1" xmlns="http://www.w3.org/2000/svg" xmlns:xlink="http://www.w3.org/1999/xlink" x="0px" y="0px"
	 width="289.232px" height="346.5px" viewBox="0 0 289.232 346.5" enable-background="new 0 0 289.232 346.5" xml:space="preserve">
<g>
	<title>Layer 1</title>
	<g id="svg_1">
		<path id="svg_24" fill="none" stroke="#000000" stroke-width="12" stroke-miterlimit="10" d="M117.286,24.538
			c27.673,34.101-13.736,85.819-64.575,172.912C1.87,284.544,115.587,328.444,124.65,329.295c9.062,0.85-44.184-33.28-27.333-85.112
			c16.853-51.83,57.382-81.171,67.55-120.739C175.036,83.875,89.613-9.563,117.286,24.538z"/>
		<path id="svg_25" fill="none" stroke="#000000" stroke-width="12" stroke-miterlimit="10" d="M181.782,123.364
			c2.761,5.61,4.052,15.863,0.986,27.964s-7.357,21.108-16.807,35.858c-9.448,14.748-19.604,24.379-37.074,55.835
			s18.166,62.495,11.351,51.823c-6.813-10.674,1.44-32.309,12.271-45.397c10.828-13.09,18.133-23.331,25.342-33.888
			c14.422-21.114,18.186-34.615,18.258-46.324c0.07-11.707-0.07-15.436-4.692-28.025
			C186.792,128.621,176.266,112.147,181.782,123.364z"/>
		<path id="svg_26" fill="none" stroke="#000000" stroke-width="12" stroke-miterlimit="10" d="M163.696,321.696
			c-4.395,7.784-5.647-16.392,2.174-37.321c7.822-20.929,32.513-39.337,43.13-59.135c10.614-19.799,17.319-49.737,8.809-65.666
			c-8.512-15.927,1.504,1.833,8.678,13.229s11.213,19.771,11.033,38.408c-0.18,18.639-5.049,40.488-37.203,69.062
			C168.163,308.848,168.091,313.911,163.696,321.696z"/>
	</g>
</g>
</svg>
