<?xml version="1.0" encoding="UTF-8" standalone="no"?>
<!-- Created with Inkscape (http://www.inkscape.org/) -->

<svg
   xmlns:dc="http://purl.org/dc/elements/1.1/"
   xmlns:cc="http://creativecommons.org/ns#"
   xmlns:rdf="http://www.w3.org/1999/02/22-rdf-syntax-ns#"
   xmlns:svg="http://www.w3.org/2000/svg"
   xmlns="http://www.w3.org/2000/svg"
   version="1.1"
   width="900"
   height="437.92349"
   id="svg2"
   xml:space="preserve"><metadata
     id="metadata8"><rdf:RDF><cc:Work
         rdf:about=""><dc:format>image/svg+xml</dc:format><dc:type
           rdf:resource="http://purl.org/dc/dcmitype/StillImage" /><dc:title></dc:title></cc:Work></rdf:RDF></metadata><defs
     id="defs6"><clipPath
       id="clipPath18"><path
         d="M 0,0 612,0 612,792 0,792 0,0 z"
         id="path20" /></clipPath><clipPath
       id="clipPath30"><path
         d="m 108,494 150,0 0,65 -150,0 0,-65 z"
         id="path32" /></clipPath><clipPath
       id="clipPath42"><path
         d="M 0,0 612,0 612,792 0,792 0,0 z"
         id="path44" /></clipPath></defs><g
     transform="matrix(1.25,0,0,-1.25,-109.99987,1030.4238)"
     id="g10"><g
       transform="matrix(4.7745164,0,0,4.7745164,-407.6474,-1864.6123)"
       id="g3073"><path
         d="m 214.4282,515.3007 c 2.7461,-1.1859 4.3863,-3.417 4.3863,-5.9593 0,-3.3665 -2.5663,-5.3738 -6.866,-5.3738 -4.5634,0 -6.6835,4.057 -7.2257,5.296 l -0.6679,1.5352 -8.5453,0 -0.0136,0.008 -7.9166,0 c -2.1633,-3.6408 -6.5185,-6.9963 -11.5835,-6.9963 -9.1402,0 -13.7009,7.2065 -14.2836,14.3229 l 37.3546,0 0,1.5597 c 0,2.9503 -0.3042,5.7273 -0.8721,8.305 1.0695,-3.3078 3.5074,-6.7384 8.617,-9.166 1.8646,-0.898 4.6824,-2.2393 7.6164,-3.5316 m -38.9677,22.6115 c 7.6448,0 11.3901,-5.322 12.4745,-10.7436 l -25.4439,0 c 1.3278,5.4325 6.0453,10.7436 12.9694,10.7436 m 74.9622,-0.157 0,9.7365 -7.941,0 0,11.5078 -9.75,0 0,-11.5078 -19.6367,0 c -9.0685,-0.005 -15.6506,-6.1598 -15.6506,-14.6409 0,-0.9115 0.0798,-1.894 0.2623,-2.912 -3.0895,10.8049 -11.2346,17.5529 -22.1732,17.5529 -13.3804,0 -23.6091,-10.5143 -24.4663,-24.7581 l 0,3.0281 c 0,11.9826 -9.6608,21.73 -21.5337,21.73 -11.8728,0 -21.5336,-9.7474 -21.5336,-21.73 l 0,-31.1539 9.869,0 0,31.1539 c 0,6.4874 5.2313,11.7697 11.6646,11.7697 6.4306,0 11.6646,-5.2823 11.6646,-11.7697 l 0,-31.1539 9.8691,0 0,24.2381 c 0.8626,-14.2942 11.2224,-24.8454 24.776,-24.8454 8.2735,0 15.5722,4.8498 19.7056,10.4665 3.0841,-6.6524 9.1105,-10.4665 16.5552,-10.4665 8.6278,0 17.361,5.5622 17.361,16.1965 0,6.3646 -3.6629,11.5664 -10.3152,14.6504 -0.8505,0.3917 -1.5374,0.7192 -2.1945,1.0344 l -0.0892,0.045 c -0.745,0.3548 -1.463,0.696 -2.354,1.1068 -4.3484,1.9691 -6.4171,3.4115 -6.4171,6.2867 0,2.53 2.2431,4.4349 5.0122,4.4349 l 19.6245,0 0,-27.7424 c 0,-8.8331 7.1175,-16.0123 15.8656,-16.0123 l 0,9.8402 c -3.3721,0 -6.1156,2.7688 -6.1156,6.1721 l 0,27.7424 c 3.9009,-0.003 6.9052,0 7.941,0"
         id="path34"
         style="fill:#98a4ac;fill-opacity:1;fill-rule:nonzero;stroke:none" /></g></g></svg>