<?xml version="1.0" encoding="utf-8"?>
<!-- Generator: Adobe Illustrator 16.0.4, SVG Export Plug-In . SVG Version: 6.00 Build 0)  -->
<!DOCTYPE svg PUBLIC "-//W3C//DTD SVG 1.1//EN" "http://www.w3.org/Graphics/SVG/1.1/DTD/svg11.dtd">
<svg version="1.1" id="Layer_1" xmlns="http://www.w3.org/2000/svg" xmlns:xlink="http://www.w3.org/1999/xlink" x="0px" y="0px"
	 width="289.232px" height="346.5px" viewBox="0 0 289.232 346.5" enable-background="new 0 0 289.232 346.5" xml:space="preserve">
<g>
	<title>Layer 1</title>
	<g id="layer1">
		<path id="path2244" fill="none" stroke="#000000" stroke-width="12" d="M138.135,20.552c-30.023,31.091,5.176,77.206-9.839,80.834
			c0,0-18.636-29.538-39.858-26.429c33.082,44.155,13.893,71.827,13.978,71.516C81.706,120.563,55.055,120.005,61,124.186
			c24.847,17.472,17.083,64.259,17.083,64.259s-26.4-22.799-38.827-10.883c33.748,17.141,19.157,36.791,18.643,60.627
			c-1.141,47.34,28.484,68.579,33.847,72.028H77.563v10.884h134.083V310.22h-16.584c10.664-4.597,51.229-25.348,54.373-76.171
			c0,0,9.851-34.427,0.03-46.299c-2.588,10.883-18.151,16.757-18.151,16.757c-4.144,0.519,5.694-24.423,5.694-35.233
			c0-24.878-6.893-41.524-6.893-41.524s-6.565,34.783-22.095,43.592c-3.117-6.454,19.282-85.536-24.905-99.592
			c11.39,23.32-1.497,40.519-1.497,40.519s-1.111,11.798-1.552,8.809c-3.384-22.927-23.817-45.081-23.817-45.081
			S144.902,66.153,138.135,20.552L138.135,20.552z"/>
	</g>
</g>
</svg>
