<?xml version="1.0" encoding="utf-8"?>
<!-- Generator: Adobe Illustrator 16.0.4, SVG Export Plug-In . SVG Version: 6.00 Build 0)  -->
<!DOCTYPE svg PUBLIC "-//W3C//DTD SVG 1.1//EN" "http://www.w3.org/Graphics/SVG/1.1/DTD/svg11.dtd">
<svg version="1.1" id="Layer_1" xmlns="http://www.w3.org/2000/svg" xmlns:xlink="http://www.w3.org/1999/xlink" x="0px" y="0px"
	 width="289.232px" height="346.5px" viewBox="0 0 289.232 346.5" enable-background="new 0 0 289.232 346.5" xml:space="preserve">
<path fill="none" stroke="#000000" stroke-width="12" stroke-miterlimit="10" d="M178.403,275.246
	c0,18.656-15.098,33.754-33.754,33.754c-18.643,0-33.754-15.098-33.754-33.754c0-18.657,15.112-33.755,33.754-33.755
	C163.306,241.491,178.403,256.589,178.403,275.246z M66.971,210.275l25.876,21.688c25.811-30.819,77.875-30.819,103.651,0.033
	l25.91-21.624c-19.349-23.141-47.681-36.393-77.76-36.393C114.587,173.982,86.272,187.201,66.971,210.275z M19.554,161.918
	l25.02,22.68c25.545-28.217,62.02-44.37,100.076-44.37c38.039,0,74.497,16.153,100.043,44.303l24.986-22.679
	c-31.94-35.205-77.496-55.378-125.028-55.378C97.083,106.474,51.495,126.714,19.554,161.918z"/>
</svg>
